<svg width="89" height="32" viewBox="0 0 89 32" fill="none" xmlns="http://www.w3.org/2000/svg">
<path d="M28.372 12.432C28.372 13.328 28.156 14.168 27.724 14.952C27.308 15.736 26.644 16.368 25.732 16.848C24.836 17.328 23.7 17.568 22.324 17.568H19.516V24H16.156V7.248H22.324C23.62 7.248 24.724 7.472 25.636 7.92C26.548 8.368 27.228 8.984 27.676 9.768C28.14 10.552 28.372 11.44 28.372 12.432ZM22.18 14.856C23.108 14.856 23.796 14.648 24.244 14.232C24.692 13.8 24.916 13.2 24.916 12.432C24.916 10.8 24.004 9.984 22.18 9.984H19.516V14.856H22.18ZM33.6376 12.768C34.0696 12.064 34.6296 11.512 35.3176 11.112C36.0216 10.712 36.8216 10.512 37.7176 10.512V14.04H36.8296C35.7736 14.04 34.9736 14.288 34.4296 14.784C33.9016 15.28 33.6376 16.144 33.6376 17.376V24H30.2776V10.704H33.6376V12.768ZM45.4047 24.216C44.1247 24.216 42.9727 23.936 41.9487 23.376C40.9247 22.8 40.1167 21.992 39.5247 20.952C38.9487 19.912 38.6607 18.712 38.6607 17.352C38.6607 15.992 38.9567 14.792 39.5487 13.752C40.1567 12.712 40.9807 11.912 42.0207 11.352C43.0607 10.776 44.2207 10.488 45.5007 10.488C46.7807 10.488 47.9407 10.776 48.9807 11.352C50.0207 11.912 50.8367 12.712 51.4287 13.752C52.0367 14.792 52.3407 15.992 52.3407 17.352C52.3407 18.712 52.0287 19.912 51.4047 20.952C50.7967 21.992 49.9647 22.8 48.9087 23.376C47.8687 23.936 46.7007 24.216 45.4047 24.216ZM45.4047 21.288C46.0127 21.288 46.5807 21.144 47.1087 20.856C47.6527 20.552 48.0847 20.104 48.4047 19.512C48.7247 18.92 48.8847 18.2 48.8847 17.352C48.8847 16.088 48.5487 15.12 47.8767 14.448C47.2207 13.76 46.4127 13.416 45.4527 13.416C44.4927 13.416 43.6847 13.76 43.0287 14.448C42.3887 15.12 42.0687 16.088 42.0687 17.352C42.0687 18.616 42.3807 19.592 43.0047 20.28C43.6447 20.952 44.4447 21.288 45.4047 21.288ZM60.4214 13.464H58.0934V24H54.6854V13.464H53.1734V10.704H54.6854V10.032C54.6854 8.4 55.1494 7.2 56.0774 6.432C57.0054 5.664 58.4054 5.304 60.2774 5.352V8.184C59.4614 8.168 58.8934 8.304 58.5734 8.592C58.2534 8.88 58.0934 9.4 58.0934 10.152V10.704H60.4214V13.464ZM63.8228 9.12C63.2308 9.12 62.7348 8.936 62.3348 8.568C61.9508 8.184 61.7588 7.712 61.7588 7.152C61.7588 6.592 61.9508 6.128 62.3348 5.76C62.7348 5.376 63.2308 5.184 63.8228 5.184C64.4148 5.184 64.9028 5.376 65.2868 5.76C65.6868 6.128 65.8868 6.592 65.8868 7.152C65.8868 7.712 65.6868 8.184 65.2868 8.568C64.9028 8.936 64.4148 9.12 63.8228 9.12ZM65.4788 10.704V24H62.1188V10.704H65.4788ZM71.6785 6.24V24H68.3185V6.24H71.6785ZM86.8782 17.064C86.8782 17.544 86.8462 17.976 86.7822 18.36H77.0622C77.1422 19.32 77.4782 20.072 78.0702 20.616C78.6622 21.16 79.3902 21.432 80.2542 21.432C81.5022 21.432 82.3902 20.896 82.9182 19.824H86.5422C86.1582 21.104 85.4222 22.16 84.3342 22.992C83.2462 23.808 81.9102 24.216 80.3262 24.216C79.0462 24.216 77.8942 23.936 76.8702 23.376C75.8622 22.8 75.0702 21.992 74.4942 20.952C73.9342 19.912 73.6542 18.712 73.6542 17.352C73.6542 15.976 73.9342 14.768 74.4942 13.728C75.0542 12.688 75.8382 11.888 76.8462 11.328C77.8542 10.768 79.0142 10.488 80.3262 10.488C81.5902 10.488 82.7182 10.76 83.7102 11.304C84.7182 11.848 85.4942 12.624 86.0382 13.632C86.5982 14.624 86.8782 15.768 86.8782 17.064ZM83.3982 16.104C83.3822 15.24 83.0702 14.552 82.4622 14.04C81.8542 13.512 81.1102 13.248 80.2302 13.248C79.3982 13.248 78.6942 13.504 78.1182 14.016C77.5582 14.512 77.2142 15.208 77.0862 16.104H83.3982Z" fill="#58BD7D"/>
<path d="M1.259 17.583C1.259 16.295 1.512 15.1527 2.018 14.156C2.53933 13.1593 3.24467 12.3927 4.134 11.856C5.02333 11.3193 6.01233 11.051 7.101 11.051C7.929 11.051 8.71867 11.235 9.47 11.603C10.2213 11.9557 10.8193 12.431 11.264 13.029V6.98H14.53V24H11.264V22.114C10.8653 22.7427 10.3057 23.2487 9.585 23.632C8.86433 24.0153 8.02867 24.207 7.078 24.207C6.00467 24.207 5.02333 23.931 4.134 23.379C3.24467 22.827 2.53933 22.0527 2.018 21.056C1.512 20.044 1.259 18.8863 1.259 17.583ZM11.287 17.629C11.287 16.847 11.1337 16.18 10.827 15.628C10.5203 15.0607 10.1063 14.6313 9.585 14.34C9.06367 14.0333 8.504 13.88 7.906 13.88C7.308 13.88 6.756 14.0257 6.25 14.317C5.744 14.6083 5.33 15.0377 5.008 15.605C4.70133 16.157 4.548 16.8163 4.548 17.583C4.548 18.3497 4.70133 19.0243 5.008 19.607C5.33 20.1743 5.744 20.6113 6.25 20.918C6.77133 21.2247 7.32333 21.378 7.906 21.378C8.504 21.378 9.06367 21.2323 9.585 20.941C10.1063 20.6343 10.5203 20.205 10.827 19.653C11.1337 19.0857 11.287 18.411 11.287 17.629Z" fill="#6E6E6E"/>
</svg>
