<svg width="33" height="32" viewBox="0 0 33 32" fill="none" xmlns="http://www.w3.org/2000/svg">
<path fill-rule="evenodd" clip-rule="evenodd" d="M13.7971 0.687536C15.4824 -0.229179 17.5175 -0.229179 19.2028 0.687536L28.973 6.00205C30.7935 6.99226 31.9267 8.89867 31.9267 10.971V21.029C31.9267 23.1013 30.7935 25.0077 28.973 25.998L19.2028 31.3125C17.5175 32.2292 15.4824 32.2292 13.7971 31.3125L4.02687 25.998C2.20645 25.0077 1.07324 23.1013 1.07324 21.029L1.07324 10.971C1.07324 8.89867 2.20645 6.99226 4.02686 6.00205L13.7971 0.687536Z" fill="#17181B"/>
<path d="M28.4999 12.6499C28.4999 13.4365 28.298 14.1741 27.8942 14.8624C27.5054 15.5508 26.8848 16.1056 26.0324 16.5271C25.1949 16.9485 24.1331 17.1592 22.8469 17.1592H20.2223V22.8065H17.0818V8.09836H22.8469C24.0583 8.09836 25.0902 8.29503 25.9426 8.68837C26.7951 9.08171 27.4306 9.62255 27.8494 10.3109C28.2831 10.9992 28.4999 11.7789 28.4999 12.6499ZM22.7123 14.7781C23.5797 14.7781 24.2228 14.5955 24.6415 14.2303C25.0603 13.851 25.2696 13.3242 25.2696 12.6499C25.2696 11.217 24.4172 10.5005 22.7123 10.5005H20.2223V14.7781H22.7123Z" fill="#58BD7D"/>
<path d="M4.88965 17.2701C4.88965 16.156 5.10733 15.1679 5.54268 14.3057C5.99123 13.4436 6.59808 12.7804 7.36325 12.3162C8.12842 11.852 8.97933 11.6198 9.916 11.6198C10.6284 11.6198 11.3078 11.779 11.9543 12.0973C12.6007 12.4024 13.1152 12.8136 13.4978 13.3308V8.09836H16.3078V22.8209H13.4978V21.1895C13.1548 21.7333 12.6732 22.171 12.0532 22.5026C11.4331 22.8342 10.7142 23 9.89621 23C8.97274 23 8.12842 22.7613 7.36325 22.2838C6.59808 21.8063 5.99123 21.1365 5.54268 20.2743C5.10733 19.3989 4.88965 18.3975 4.88965 17.2701ZM13.5176 17.3099C13.5176 16.6335 13.3856 16.0565 13.1218 15.579C12.8579 15.0883 12.5017 14.7169 12.0532 14.4649C11.6046 14.1996 11.1231 14.067 10.6086 14.067C10.0941 14.067 9.61917 14.193 9.18382 14.445C8.74846 14.697 8.39227 15.0684 8.11522 15.5591C7.85137 16.0366 7.71945 16.607 7.71945 17.2701C7.71945 17.9333 7.85137 18.5169 8.11522 19.0209C8.39227 19.5117 8.74846 19.8897 9.18382 20.155C9.63236 20.4202 10.1073 20.5529 10.6086 20.5529C11.1231 20.5529 11.6046 20.4269 12.0532 20.1749C12.5017 19.9096 12.8579 19.5382 13.1218 19.0607C13.3856 18.57 13.5176 17.9864 13.5176 17.3099Z" fill="#6E6E6E"/>
<path d="M20.2751 14.7751C20.2751 14.7751 16.211 14.7751 13.5016 13.3236L13.3081 15.9362C13.3081 15.9362 15.824 17.1942 20.2751 17.1942V14.7751Z" fill="#58BD7D"/>
<path d="M14.036 1.12676C15.5724 0.291079 17.4275 0.291079 18.9639 1.12676L28.7341 6.44127C30.3936 7.34396 31.4267 9.08185 31.4267 10.971V21.029C31.4267 22.9182 30.3936 24.656 28.7341 25.5587L18.9639 30.8732C17.4275 31.7089 15.5724 31.7089 14.036 30.8732L4.26578 25.5587C2.60628 24.656 1.57324 22.9182 1.57324 21.029V10.971C1.57324 9.08185 2.60628 7.34396 4.26578 6.44127L14.036 1.12676Z" stroke="url(#paint0_linear_798_10603)"/>
<defs>
<linearGradient id="paint0_linear_798_10603" x1="16.5" y1="0" x2="16.5" y2="32" gradientUnits="userSpaceOnUse">
<stop stop-color="white" stop-opacity="0.27"/>
<stop offset="1" stop-color="white" stop-opacity="0.42"/>
</linearGradient>
</defs>
</svg>
