<svg width="32" height="32" viewBox="0 0 32 32" fill="none" xmlns="http://www.w3.org/2000/svg">
<path fill-rule="evenodd" clip-rule="evenodd" d="M13.2972 0.687536C14.9825 -0.229179 17.0176 -0.229179 18.7029 0.687536L28.4731 6.00205C30.2935 6.99226 31.4267 8.89867 31.4267 10.971V21.029C31.4267 23.1013 30.2935 25.0077 28.4731 25.998L18.7029 31.3125C17.0176 32.2292 14.9825 32.2292 13.2972 31.3125L3.52693 25.998C1.70651 25.0077 0.573303 23.1013 0.573303 21.029L0.573303 10.971C0.573303 8.89867 1.70651 6.99226 3.52692 6.00205L13.2972 0.687536Z" fill="#17181B"/>
<path d="M28 12.6499C28 13.4365 27.7981 14.1741 27.3943 14.8624C27.0055 15.5508 26.3849 16.1056 25.5324 16.5271C24.6949 16.9485 23.6331 17.1592 22.347 17.1592H19.7224V22.8065H16.5819V8.09836H22.347C23.5584 8.09836 24.5903 8.29503 25.4427 8.68837C26.2951 9.08171 26.9307 9.62255 27.3495 10.3109C27.7832 10.9992 28 11.7789 28 12.6499ZM22.2124 14.7781C23.0798 14.7781 23.7229 14.5955 24.1416 14.2303C24.5604 13.851 24.7697 13.3242 24.7697 12.6499C24.7697 11.217 23.9173 10.5005 22.2124 10.5005H19.7224V14.7781H22.2124Z" fill="#58BD7D"/>
<path d="M4.38962 17.2701C4.38962 16.156 4.60729 15.1679 5.04265 14.3057C5.49119 13.4436 6.09805 12.7804 6.86322 12.3162C7.62838 11.852 8.4793 11.6198 9.41597 11.6198C10.1284 11.6198 10.8078 11.779 11.4542 12.0973C12.1007 12.4024 12.6152 12.8136 12.9977 13.3308V8.09836H15.8078V22.8209H12.9977V21.1895C12.6547 21.7333 12.1732 22.171 11.5532 22.5026C10.9331 22.8342 10.2141 23 9.39618 23C8.47271 23 7.62838 22.7613 6.86322 22.2838C6.09805 21.8063 5.49119 21.1365 5.04265 20.2743C4.60729 19.3989 4.38962 18.3975 4.38962 17.2701ZM13.0175 17.3099C13.0175 16.6335 12.8856 16.0565 12.6218 15.579C12.3579 15.0883 12.0017 14.7169 11.5532 14.4649C11.1046 14.1996 10.6231 14.067 10.1086 14.067C9.59407 14.067 9.11914 14.193 8.68379 14.445C8.24843 14.697 7.89224 15.0684 7.61519 15.5591C7.35134 16.0366 7.21942 16.607 7.21942 17.2701C7.21942 17.9333 7.35134 18.5169 7.61519 19.0209C7.89224 19.5117 8.24843 19.8897 8.68379 20.155C9.13233 20.4202 9.60727 20.5529 10.1086 20.5529C10.6231 20.5529 11.1046 20.4269 11.5532 20.1749C12.0017 19.9096 12.3579 19.5382 12.6218 19.0607C12.8856 18.57 13.0175 17.9864 13.0175 17.3099Z" fill="white"/>
<path d="M19.7751 14.7751C19.7751 14.7751 15.711 14.7751 13.0016 13.3236L12.8081 15.9362C12.8081 15.9362 15.3239 17.1942 19.7751 17.1942V14.7751Z" fill="#58BD7D"/>
<path d="M13.5361 1.12676C15.0724 0.291079 16.9276 0.291079 18.4639 1.12676L28.2342 6.44127C29.8937 7.34396 30.9267 9.08185 30.9267 10.971V21.029C30.9267 22.9182 29.8937 24.656 28.2342 25.5587L18.4639 30.8732C16.9276 31.7089 15.0724 31.7089 13.5361 30.8732L3.76584 25.5587C2.10634 24.656 1.0733 22.9182 1.0733 21.029V10.971C1.0733 9.08185 2.10634 7.34396 3.76584 6.44127L13.5361 1.12676Z" stroke="url(#paint0_linear_800_4962)"/>
<defs>
<linearGradient id="paint0_linear_800_4962" x1="16" y1="0" x2="16" y2="32" gradientUnits="userSpaceOnUse">
<stop stop-color="white" stop-opacity="0.27"/>
<stop offset="1" stop-color="white" stop-opacity="0.42"/>
</linearGradient>
</defs>
</svg>
