<svg width="100" height="32" viewBox="0 0 100 32" fill="none" xmlns="http://www.w3.org/2000/svg">
<path d="M27.872 12.432C27.872 13.328 27.656 14.168 27.224 14.952C26.808 15.736 26.144 16.368 25.232 16.848C24.336 17.328 23.2 17.568 21.824 17.568H19.016V24H15.656V7.248H21.824C23.12 7.248 24.224 7.472 25.136 7.92C26.048 8.368 26.728 8.984 27.176 9.768C27.64 10.552 27.872 11.44 27.872 12.432ZM21.68 14.856C22.608 14.856 23.296 14.648 23.744 14.232C24.192 13.8 24.416 13.2 24.416 12.432C24.416 10.8 23.504 9.984 21.68 9.984H19.016V14.856H21.68ZM33.1376 12.768C33.5696 12.064 34.1296 11.512 34.8176 11.112C35.5216 10.712 36.3216 10.512 37.2176 10.512V14.04H36.3296C35.2736 14.04 34.4736 14.288 33.9296 14.784C33.4016 15.28 33.1376 16.144 33.1376 17.376V24H29.7776V10.704H33.1376V12.768ZM44.9047 24.216C43.6247 24.216 42.4727 23.936 41.4487 23.376C40.4247 22.8 39.6167 21.992 39.0247 20.952C38.4487 19.912 38.1607 18.712 38.1607 17.352C38.1607 15.992 38.4567 14.792 39.0487 13.752C39.6567 12.712 40.4807 11.912 41.5207 11.352C42.5607 10.776 43.7207 10.488 45.0007 10.488C46.2807 10.488 47.4407 10.776 48.4807 11.352C49.5207 11.912 50.3367 12.712 50.9287 13.752C51.5367 14.792 51.8407 15.992 51.8407 17.352C51.8407 18.712 51.5287 19.912 50.9047 20.952C50.2967 21.992 49.4647 22.8 48.4087 23.376C47.3687 23.936 46.2007 24.216 44.9047 24.216ZM44.9047 21.288C45.5127 21.288 46.0807 21.144 46.6087 20.856C47.1527 20.552 47.5847 20.104 47.9047 19.512C48.2247 18.92 48.3847 18.2 48.3847 17.352C48.3847 16.088 48.0487 15.12 47.3767 14.448C46.7207 13.76 45.9127 13.416 44.9527 13.416C43.9927 13.416 43.1847 13.76 42.5287 14.448C41.8887 15.12 41.5687 16.088 41.5687 17.352C41.5687 18.616 41.8807 19.592 42.5047 20.28C43.1447 20.952 43.9447 21.288 44.9047 21.288ZM59.9214 13.464H57.5934V24H54.1854V13.464H52.6734V10.704H54.1854V10.032C54.1854 8.4 54.6494 7.2 55.5774 6.432C56.5054 5.664 57.9054 5.304 59.7774 5.352V8.184C58.9614 8.168 58.3934 8.304 58.0734 8.592C57.7534 8.88 57.5934 9.4 57.5934 10.152V10.704H59.9214V13.464ZM63.3228 9.12C62.7308 9.12 62.2348 8.936 61.8348 8.568C61.4508 8.184 61.2588 7.712 61.2588 7.152C61.2588 6.592 61.4508 6.128 61.8348 5.76C62.2348 5.376 62.7308 5.184 63.3228 5.184C63.9148 5.184 64.4028 5.376 64.7868 5.76C65.1868 6.128 65.3868 6.592 65.3868 7.152C65.3868 7.712 65.1868 8.184 64.7868 8.568C64.4028 8.936 63.9148 9.12 63.3228 9.12ZM64.9788 10.704V24H61.6188V10.704H64.9788ZM71.1785 6.24V24H67.8185V6.24H71.1785ZM86.3782 17.064C86.3782 17.544 86.3462 17.976 86.2822 18.36H76.5622C76.6422 19.32 76.9782 20.072 77.5702 20.616C78.1622 21.16 78.8902 21.432 79.7542 21.432C81.0022 21.432 81.8902 20.896 82.4182 19.824H86.0422C85.6582 21.104 84.9222 22.16 83.8342 22.992C82.7462 23.808 81.4102 24.216 79.8262 24.216C78.5462 24.216 77.3942 23.936 76.3702 23.376C75.3622 22.8 74.5702 21.992 73.9942 20.952C73.4342 19.912 73.1542 18.712 73.1542 17.352C73.1542 15.976 73.4342 14.768 73.9942 13.728C74.5542 12.688 75.3382 11.888 76.3462 11.328C77.3542 10.768 78.5142 10.488 79.8262 10.488C81.0902 10.488 82.2182 10.76 83.2102 11.304C84.2182 11.848 84.9942 12.624 85.5382 13.632C86.0982 14.624 86.3782 15.768 86.3782 17.064ZM82.8982 16.104C82.8822 15.24 82.5702 14.552 81.9622 14.04C81.3542 13.512 80.6102 13.248 79.7302 13.248C78.8982 13.248 78.1942 13.504 77.6182 14.016C77.0582 14.512 76.7142 15.208 76.5862 16.104H82.8982ZM93.4387 24.216C92.3507 24.216 91.3747 24.024 90.5107 23.64C89.6467 23.24 88.9587 22.704 88.4467 22.032C87.9507 21.36 87.6787 20.616 87.6307 19.8H91.0147C91.0787 20.312 91.3267 20.736 91.7587 21.072C92.2067 21.408 92.7587 21.576 93.4147 21.576C94.0547 21.576 94.5507 21.448 94.9027 21.192C95.2707 20.936 95.4547 20.608 95.4547 20.208C95.4547 19.776 95.2307 19.456 94.7827 19.248C94.3507 19.024 93.6547 18.784 92.6947 18.528C91.7027 18.288 90.8867 18.04 90.2467 17.784C89.6227 17.528 89.0787 17.136 88.6147 16.608C88.1667 16.08 87.9427 15.368 87.9427 14.472C87.9427 13.736 88.1507 13.064 88.5667 12.456C88.9987 11.848 89.6067 11.368 90.3907 11.016C91.1907 10.664 92.1267 10.488 93.1987 10.488C94.7827 10.488 96.0467 10.888 96.9907 11.688C97.9347 12.472 98.4547 13.536 98.5507 14.88H95.3347C95.2867 14.352 95.0627 13.936 94.6627 13.632C94.2787 13.312 93.7587 13.152 93.1027 13.152C92.4947 13.152 92.0227 13.264 91.6867 13.488C91.3667 13.712 91.2067 14.024 91.2067 14.424C91.2067 14.872 91.4307 15.216 91.8787 15.456C92.3267 15.68 93.0227 15.912 93.9667 16.152C94.9267 16.392 95.7187 16.64 96.3427 16.896C96.9667 17.152 97.5027 17.552 97.9507 18.096C98.4147 18.624 98.6547 19.328 98.6707 20.208C98.6707 20.976 98.4547 21.664 98.0227 22.272C97.6067 22.88 96.9987 23.36 96.1987 23.712C95.4147 24.048 94.4947 24.216 93.4387 24.216Z" fill="black"/>
<path d="M0.759 17.583C0.759 16.295 1.012 15.1527 1.518 14.156C2.03933 13.1593 2.74467 12.3927 3.634 11.856C4.52333 11.3193 5.51233 11.051 6.601 11.051C7.429 11.051 8.21867 11.235 8.97 11.603C9.72133 11.9557 10.3193 12.431 10.764 13.029V6.98H14.03V24H10.764V22.114C10.3653 22.7427 9.80567 23.2487 9.085 23.632C8.36433 24.0153 7.52867 24.207 6.578 24.207C5.50467 24.207 4.52333 23.931 3.634 23.379C2.74467 22.827 2.03933 22.0527 1.518 21.056C1.012 20.044 0.759 18.8863 0.759 17.583ZM10.787 17.629C10.787 16.847 10.6337 16.18 10.327 15.628C10.0203 15.0607 9.60633 14.6313 9.085 14.34C8.56367 14.0333 8.004 13.88 7.406 13.88C6.808 13.88 6.256 14.0257 5.75 14.317C5.244 14.6083 4.83 15.0377 4.508 15.605C4.20133 16.157 4.048 16.8163 4.048 17.583C4.048 18.3497 4.20133 19.0243 4.508 19.607C4.83 20.1743 5.244 20.6113 5.75 20.918C6.27133 21.2247 6.82333 21.378 7.406 21.378C8.004 21.378 8.56367 21.2323 9.085 20.941C9.60633 20.6343 10.0203 20.205 10.327 19.653C10.6337 19.0857 10.787 18.411 10.787 17.629Z" fill="black"/>
</svg>
