<svg width="32" height="32" viewBox="0 0 32 32" fill="none" xmlns="http://www.w3.org/2000/svg">
<path fill-rule="evenodd" clip-rule="evenodd" d="M13.2971 0.687536C14.9824 -0.229179 17.0175 -0.229179 18.7028 0.687536L28.473 6.00205C30.2935 6.99226 31.4267 8.89867 31.4267 10.971V21.029C31.4267 23.1013 30.2935 25.0077 28.473 25.998L18.7028 31.3125C17.0175 32.2292 14.9824 32.2292 13.2971 31.3125L3.52687 25.998C1.70645 25.0077 0.573242 23.1013 0.573242 21.029L0.573242 10.971C0.573242 8.89867 1.70645 6.99226 3.52686 6.00205L13.2971 0.687536Z" fill="#58BD7D"/>
<rect x="16.7734" y="18.937" width="3" height="6.51122" rx="1.5" transform="rotate(-45 16.7734 18.937)" fill="#FCFCFD"/>
<rect x="9" y="11.1213" width="3" height="6.51122" rx="1.5" transform="rotate(-45 9 11.1213)" fill="#FF6838"/>
<rect x="11.1211" y="23.541" width="3" height="17.5642" rx="1.5" transform="rotate(-135 11.1211 23.541)" fill="#FCFCFD"/>
<path d="M13.536 1.12676C15.0724 0.291079 16.9275 0.291079 18.4639 1.12676L28.2341 6.44127C29.8936 7.34396 30.9267 9.08185 30.9267 10.971V21.029C30.9267 22.9182 29.8936 24.656 28.2341 25.5587L18.4639 30.8732C16.9275 31.7089 15.0724 31.7089 13.536 30.8732L3.76578 25.5587C2.10628 24.656 1.07324 22.9182 1.07324 21.029V10.971C1.07324 9.08185 2.10628 7.34396 3.76578 6.44127L13.536 1.12676Z" stroke="url(#paint0_linear_1041_4574)"/>
<defs>
<linearGradient id="paint0_linear_1041_4574" x1="16" y1="0" x2="16" y2="32" gradientUnits="userSpaceOnUse">
<stop stop-color="#7EA4FF" stop-opacity="0.27"/>
<stop offset="1" stop-color="#1448C4" stop-opacity="0.42"/>
</linearGradient>
</defs>
</svg>
