<svg width="132" height="32" viewBox="0 0 132 32" fill="none" xmlns="http://www.w3.org/2000/svg">
<path fill-rule="evenodd" clip-rule="evenodd" d="M13.2981 0.687536C14.9834 -0.229179 17.0185 -0.229179 18.7038 0.687536L28.474 6.00205C30.2944 6.99226 31.4276 8.89867 31.4276 10.971V21.029C31.4276 23.1013 30.2944 25.0077 28.474 25.998L18.7038 31.3125C17.0185 32.2292 14.9834 32.2292 13.2981 31.3125L3.52784 25.998C1.70742 25.0077 0.574219 23.1013 0.574219 21.029L0.574219 10.971C0.574219 8.89867 1.70742 6.99226 3.52784 6.00205L13.2981 0.687536Z" fill="#58BD7D"/>
<path d="M16.3241 19.0589C16.9718 19.0589 17.5803 18.9929 18.1498 18.861C18.7192 18.7291 19.2105 18.5092 19.6236 18.2014C20.0479 17.8936 20.3773 17.4978 20.6118 17.0141C20.8575 16.5194 20.9803 15.9148 20.9803 15.2002C20.9803 14.4857 20.8575 13.8865 20.6118 13.4028C20.3773 12.9081 20.0479 12.5069 19.6236 12.1991C19.2105 11.8912 18.7192 11.6714 18.1498 11.5395C17.5803 11.4075 16.9718 11.3416 16.3241 11.3416H10.3616V19.0589H16.3241ZM16.3241 12.265C16.8266 12.265 17.3011 12.3145 17.7478 12.4134C18.2056 12.5014 18.602 12.6608 18.9369 12.8916C19.2831 13.1225 19.5567 13.4248 19.7576 13.7986C19.9698 14.1724 20.0759 14.6396 20.0759 15.2002C20.0759 15.7609 19.9754 16.2336 19.7744 16.6184C19.5734 16.9921 19.2998 17.2945 18.9537 17.5253C18.6076 17.7452 18.2056 17.9046 17.7478 18.0035C17.3011 18.0915 16.8266 18.1355 16.3241 18.1355H11.266V12.265H16.3241ZM16.3241 10.3357C17.1392 10.3357 17.8929 10.4236 18.5852 10.5995C19.2775 10.7644 19.8805 11.0448 20.3941 11.4405C20.9077 11.8253 21.3097 12.3255 21.6 12.9411C21.8903 13.5567 22.0355 14.3098 22.0355 15.2002C22.0355 16.0907 21.8903 16.8437 21.6 17.4594C21.3097 18.075 20.9077 18.5807 20.3941 18.9764C19.8805 19.3612 19.2775 19.6415 18.5852 19.8174C17.8929 19.9823 17.1392 20.0648 16.3241 20.0648H9.3399V10.3357H16.3241ZM16.3241 20.9882C17.2956 20.9882 18.1833 20.8838 18.9872 20.6749C19.8023 20.466 20.5002 20.1307 21.0808 19.669C21.6726 19.2073 22.1304 18.6082 22.4542 17.8716C22.7892 17.1351 22.9567 16.2446 22.9567 15.2002C22.9567 14.1559 22.7892 13.2654 22.4542 12.5289C22.1304 11.7923 21.6726 11.1932 21.0808 10.7314C20.5002 10.2697 19.8023 9.93443 18.9872 9.72556C18.1833 9.51669 17.2956 9.41225 16.3241 9.41225H8.41872V20.9882H16.3241ZM8 9H16.3241C16.9606 9 17.5747 9.03298 18.1665 9.09894C18.7583 9.15391 19.3389 9.28583 19.9084 9.4947C20.489 9.70357 21.064 10.0114 21.6335 10.4181C22.2141 10.8249 22.8059 11.3746 23.4089 12.0671C23.9113 12.5618 24.3021 13.2379 24.5813 14.0954C24.8604 14.9419 25 15.8598 25 16.8492C25 17.9596 24.8269 18.905 24.4808 19.6855C24.1346 20.466 23.6489 21.0982 23.0236 21.5819C22.4095 22.0766 21.6726 22.4338 20.8128 22.6537C19.953 22.8846 19.0151 23 17.999 23H9.72512L8 21.4005V9ZM13.3094 17.7232H16.3241C16.7708 17.7232 17.1951 17.6847 17.597 17.6078C17.999 17.5198 18.3507 17.3824 18.6522 17.1955C18.9649 16.9976 19.2105 16.7393 19.3892 16.4205C19.5678 16.0907 19.6571 15.6839 19.6571 15.2002C19.6571 14.9584 19.6292 14.7165 19.5734 14.4747C19.0821 14.3428 18.5573 14.2768 17.999 14.2768H13.3094V17.7232Z" fill="url(#paint0_linear_1514_2979)"/>
<path d="M13.537 1.12676C15.0733 0.291079 16.9285 0.291079 18.4648 1.12676L28.2351 6.44127C29.8946 7.34396 30.9276 9.08185 30.9276 10.971V21.029C30.9276 22.9182 29.8946 24.656 28.2351 25.5587L18.4648 30.8732C16.9285 31.7089 15.0733 31.7089 13.537 30.8732L3.76676 25.5587C2.10725 24.656 1.07422 22.9182 1.07422 21.029V10.971C1.07422 9.08185 2.10725 7.34396 3.76676 6.44127L13.537 1.12676Z" stroke="url(#paint1_linear_1514_2979)"/>
<path d="M47.512 7.248C49.272 7.248 50.816 7.592 52.144 8.28C53.488 8.968 54.52 9.952 55.24 11.232C55.976 12.496 56.344 13.968 56.344 15.648C56.344 17.328 55.976 18.8 55.24 20.064C54.52 21.312 53.488 22.28 52.144 22.968C50.816 23.656 49.272 24 47.512 24H41.656V7.248H47.512ZM47.392 21.144C49.152 21.144 50.512 20.664 51.472 19.704C52.432 18.744 52.912 17.392 52.912 15.648C52.912 13.904 52.432 12.544 51.472 11.568C50.512 10.576 49.152 10.08 47.392 10.08H45.016V21.144H47.392ZM61.7391 12.624C62.1711 12.016 62.7631 11.512 63.5151 11.112C64.2831 10.696 65.1551 10.488 66.1311 10.488C67.2671 10.488 68.2911 10.768 69.2031 11.328C70.1311 11.888 70.8591 12.688 71.3871 13.728C71.9311 14.752 72.2031 15.944 72.2031 17.304C72.2031 18.664 71.9311 19.872 71.3871 20.928C70.8591 21.968 70.1311 22.776 69.2031 23.352C68.2911 23.928 67.2671 24.216 66.1311 24.216C65.1551 24.216 64.2911 24.016 63.5391 23.616C62.8031 23.216 62.2031 22.712 61.7391 22.104V30.336H58.3791V10.704H61.7391V12.624ZM68.7711 17.304C68.7711 16.504 68.6031 15.816 68.2671 15.24C67.9471 14.648 67.5151 14.2 66.9711 13.896C66.4431 13.592 65.8671 13.44 65.2431 13.44C64.6351 13.44 64.0591 13.6 63.5151 13.92C62.9871 14.224 62.5551 14.672 62.2191 15.264C61.8991 15.856 61.7391 16.552 61.7391 17.352C61.7391 18.152 61.8991 18.848 62.2191 19.44C62.5551 20.032 62.9871 20.488 63.5151 20.808C64.0591 21.112 64.6351 21.264 65.2431 21.264C65.8671 21.264 66.4431 21.104 66.9711 20.784C67.5151 20.464 67.9471 20.008 68.2671 19.416C68.6031 18.824 68.7711 18.12 68.7711 17.304ZM77.5248 12.768C77.9568 12.064 78.5168 11.512 79.2048 11.112C79.9088 10.712 80.7088 10.512 81.6048 10.512V14.04H80.7168C79.6608 14.04 78.8608 14.288 78.3168 14.784C77.7888 15.28 77.5248 16.144 77.5248 17.376V24H74.1648V10.704H77.5248V12.768ZM89.2919 24.216C88.0119 24.216 86.8599 23.936 85.8359 23.376C84.8119 22.8 84.0039 21.992 83.4119 20.952C82.8359 19.912 82.5479 18.712 82.5479 17.352C82.5479 15.992 82.8439 14.792 83.4359 13.752C84.0439 12.712 84.8679 11.912 85.9079 11.352C86.9479 10.776 88.1079 10.488 89.3879 10.488C90.6679 10.488 91.8279 10.776 92.8679 11.352C93.9079 11.912 94.7239 12.712 95.3159 13.752C95.9239 14.792 96.2279 15.992 96.2279 17.352C96.2279 18.712 95.9159 19.912 95.2919 20.952C94.6839 21.992 93.8519 22.8 92.7959 23.376C91.7559 23.936 90.5879 24.216 89.2919 24.216ZM89.2919 21.288C89.8999 21.288 90.4679 21.144 90.9959 20.856C91.5399 20.552 91.9719 20.104 92.2919 19.512C92.6119 18.92 92.7719 18.2 92.7719 17.352C92.7719 16.088 92.4359 15.12 91.7639 14.448C91.1079 13.76 90.2999 13.416 89.3399 13.416C88.3799 13.416 87.5719 13.76 86.9159 14.448C86.2759 15.12 85.9559 16.088 85.9559 17.352C85.9559 18.616 86.2679 19.592 86.8919 20.28C87.5319 20.952 88.3319 21.288 89.2919 21.288ZM104.309 13.464H101.981V24H98.5726V13.464H97.0606V10.704H98.5726V10.032C98.5726 8.4 99.0366 7.2 99.9646 6.432C100.893 5.664 102.293 5.304 104.165 5.352V8.184C103.349 8.168 102.781 8.304 102.461 8.592C102.141 8.88 101.981 9.4 101.981 10.152V10.704H104.309V13.464ZM107.71 9.12C107.118 9.12 106.622 8.936 106.222 8.568C105.838 8.184 105.646 7.712 105.646 7.152C105.646 6.592 105.838 6.128 106.222 5.76C106.622 5.376 107.118 5.184 107.71 5.184C108.302 5.184 108.79 5.376 109.174 5.76C109.574 6.128 109.774 6.592 109.774 7.152C109.774 7.712 109.574 8.184 109.174 8.568C108.79 8.936 108.302 9.12 107.71 9.12ZM109.366 10.704V24H106.006V10.704H109.366ZM115.566 6.24V24H112.206V6.24H115.566ZM130.765 17.064C130.765 17.544 130.733 17.976 130.669 18.36H120.949C121.029 19.32 121.365 20.072 121.957 20.616C122.549 21.16 123.277 21.432 124.141 21.432C125.389 21.432 126.277 20.896 126.805 19.824H130.429C130.045 21.104 129.309 22.16 128.221 22.992C127.133 23.808 125.797 24.216 124.213 24.216C122.933 24.216 121.781 23.936 120.757 23.376C119.749 22.8 118.957 21.992 118.381 20.952C117.821 19.912 117.541 18.712 117.541 17.352C117.541 15.976 117.821 14.768 118.381 13.728C118.941 12.688 119.725 11.888 120.733 11.328C121.741 10.768 122.901 10.488 124.213 10.488C125.477 10.488 126.605 10.76 127.597 11.304C128.605 11.848 129.381 12.624 129.925 13.632C130.485 14.624 130.765 15.768 130.765 17.064ZM127.285 16.104C127.269 15.24 126.957 14.552 126.349 14.04C125.741 13.512 124.997 13.248 124.117 13.248C123.285 13.248 122.581 13.504 122.005 14.016C121.445 14.512 121.101 15.208 120.973 16.104H127.285Z" fill="#23262F"/>
<defs>
<linearGradient id="paint0_linear_1514_2979" x1="6.5" y1="9" x2="25" y2="24.5" gradientUnits="userSpaceOnUse">
<stop offset="0.395115" stop-color="white"/>
<stop offset="1" stop-color="#B3FFD7"/>
</linearGradient>
<linearGradient id="paint1_linear_1514_2979" x1="16.0009" y1="0" x2="16.0009" y2="32" gradientUnits="userSpaceOnUse">
<stop stop-color="#7EFFC1" stop-opacity="0.27"/>
<stop offset="1" stop-color="#11814B" stop-opacity="0.42"/>
</linearGradient>
</defs>
</svg>
