<svg width="105" height="19" viewBox="0 0 105 19" fill="none" xmlns="http://www.w3.org/2000/svg">
<path d="M13.056 1.248V3.96H8.592V18H5.232V3.96H0.768V1.248H13.056ZM14.1636 11.304C14.1636 9.96 14.4276 8.768 14.9556 7.728C15.4996 6.688 16.2276 5.888 17.1396 5.328C18.0676 4.768 19.0996 4.488 20.2356 4.488C21.2276 4.488 22.0916 4.688 22.8276 5.088C23.5796 5.488 24.1796 5.992 24.6276 6.6V4.704H28.0116V18H24.6276V16.056C24.1956 16.68 23.5956 17.2 22.8276 17.616C22.0756 18.016 21.2036 18.216 20.2116 18.216C19.0916 18.216 18.0676 17.928 17.1396 17.352C16.2276 16.776 15.4996 15.968 14.9556 14.928C14.4276 13.872 14.1636 12.664 14.1636 11.304ZM24.6276 11.352C24.6276 10.536 24.4676 9.84 24.1476 9.264C23.8276 8.672 23.3956 8.224 22.8516 7.92C22.3076 7.6 21.7236 7.44 21.0996 7.44C20.4756 7.44 19.8996 7.592 19.3716 7.896C18.8436 8.2 18.4116 8.648 18.0756 9.24C17.7556 9.816 17.5956 10.504 17.5956 11.304C17.5956 12.104 17.7556 12.808 18.0756 13.416C18.4116 14.008 18.8436 14.464 19.3716 14.784C19.9156 15.104 20.4916 15.264 21.0996 15.264C21.7236 15.264 22.3076 15.112 22.8516 14.808C23.3956 14.488 23.8276 14.04 24.1476 13.464C24.4676 12.872 24.6276 12.168 24.6276 11.352ZM34.1732 0.24V18H30.8132V0.24H34.1732ZM49.3729 11.064C49.3729 11.544 49.3409 11.976 49.2769 12.36H39.5569C39.6369 13.32 39.9729 14.072 40.5649 14.616C41.1569 15.16 41.8849 15.432 42.7489 15.432C43.9969 15.432 44.8849 14.896 45.4129 13.824H49.0369C48.6529 15.104 47.9169 16.16 46.8289 16.992C45.7409 17.808 44.4049 18.216 42.8209 18.216C41.5409 18.216 40.3889 17.936 39.3649 17.376C38.3569 16.8 37.5649 15.992 36.9889 14.952C36.4289 13.912 36.1489 12.712 36.1489 11.352C36.1489 9.976 36.4289 8.768 36.9889 7.728C37.5489 6.688 38.3329 5.888 39.3409 5.328C40.3489 4.768 41.5089 4.488 42.8209 4.488C44.0849 4.488 45.2129 4.76 46.2049 5.304C47.2129 5.848 47.9889 6.624 48.5329 7.632C49.0929 8.624 49.3729 9.768 49.3729 11.064ZM45.8929 10.104C45.8769 9.24 45.5649 8.552 44.9569 8.04C44.3489 7.512 43.6049 7.248 42.7249 7.248C41.8929 7.248 41.1889 7.504 40.6129 8.016C40.0529 8.512 39.7089 9.208 39.5809 10.104H45.8929ZM58.7134 4.512C60.2974 4.512 61.5774 5.016 62.5534 6.024C63.5294 7.016 64.0174 8.408 64.0174 10.2V18H60.6574V10.656C60.6574 9.6 60.3934 8.792 59.8654 8.232C59.3374 7.656 58.6174 7.368 57.7054 7.368C56.7774 7.368 56.0414 7.656 55.4974 8.232C54.9694 8.792 54.7054 9.6 54.7054 10.656V18H51.3454V4.704H54.7054V6.36C55.1534 5.784 55.7214 5.336 56.4094 5.016C57.1134 4.68 57.8814 4.512 58.7134 4.512ZM70.6446 7.464V13.896C70.6446 14.344 70.7486 14.672 70.9566 14.88C71.1806 15.072 71.5486 15.168 72.0606 15.168H73.6206V18H71.5086C68.6766 18 67.2606 16.624 67.2606 13.872V7.464H65.6766V4.704H67.2606V1.416H70.6446V4.704H73.6206V7.464H70.6446ZM78.8693 1.248V11.616C78.8693 12.752 79.1653 13.624 79.7573 14.232C80.3493 14.824 81.1813 15.12 82.2533 15.12C83.3413 15.12 84.1813 14.824 84.7733 14.232C85.3653 13.624 85.6613 12.752 85.6613 11.616V1.248H89.0453V11.592C89.0453 13.016 88.7333 14.224 88.1093 15.216C87.5013 16.192 86.6773 16.928 85.6373 17.424C84.6133 17.92 83.4693 18.168 82.2053 18.168C80.9573 18.168 79.8213 17.92 78.7973 17.424C77.7893 16.928 76.9893 16.192 76.3973 15.216C75.8053 14.224 75.5093 13.016 75.5093 11.592V1.248H78.8693ZM104.028 6.432C104.028 7.328 103.812 8.168 103.38 8.952C102.964 9.736 102.3 10.368 101.388 10.848C100.492 11.328 99.3556 11.568 97.9796 11.568H95.1716V18H91.8116V1.248H97.9796C99.2756 1.248 100.38 1.472 101.292 1.92C102.204 2.368 102.884 2.984 103.332 3.768C103.796 4.552 104.028 5.44 104.028 6.432ZM97.8356 8.856C98.7636 8.856 99.4516 8.648 99.8996 8.232C100.348 7.8 100.572 7.2 100.572 6.432C100.572 4.8 99.6596 3.984 97.8356 3.984H95.1716V8.856H97.8356Z" fill="#23262F"/>
</svg>
