<svg width="24" height="17" viewBox="0 0 24 17" fill="none" xmlns="http://www.w3.org/2000/svg">
<path fill-rule="evenodd" clip-rule="evenodd" d="M0.800781 0.333313H23.2008V16.3333H0.800781V0.333313Z" fill="url(#paint0_linear_351_8098)"/>
<path fill-rule="evenodd" clip-rule="evenodd" d="M0.800781 0.333313H23.2008V1.39998H0.800781V0.333313ZM0.800781 2.46665H23.2008V3.53331H0.800781V2.46665ZM0.800781 4.59998H23.2008V5.66665H0.800781V4.59998ZM0.800781 6.73331H23.2008V7.79998H0.800781V6.73331ZM0.800781 8.86665H23.2008V9.93331H0.800781V8.86665ZM0.800781 11H23.2008V12.0666H0.800781V11ZM0.800781 13.1333H23.2008V14.2H0.800781V13.1333ZM0.800781 15.2666H23.2008V16.3333H0.800781V15.2666Z" fill="url(#paint1_linear_351_8098)"/>
<path fill-rule="evenodd" clip-rule="evenodd" d="M0.800781 0.333313H10.4008V7.79998H0.800781V0.333313Z" fill="url(#paint2_linear_351_8098)"/>
<path fill-rule="evenodd" clip-rule="evenodd" d="M2.40247 2.46666C2.10792 2.46666 1.86914 2.22788 1.86914 1.93333C1.86914 1.63878 2.10792 1.39999 2.40247 1.39999C2.69703 1.39999 2.93581 1.63878 2.93581 1.93333C2.93581 2.22788 2.69703 2.46666 2.40247 2.46666ZM4.53581 2.46666C4.24126 2.46666 4.00247 2.22788 4.00247 1.93333C4.00247 1.63878 4.24126 1.39999 4.53581 1.39999C4.83036 1.39999 5.06914 1.63878 5.06914 1.93333C5.06914 2.22788 4.83036 2.46666 4.53581 2.46666ZM6.66914 2.46666C6.37459 2.46666 6.13581 2.22788 6.13581 1.93333C6.13581 1.63878 6.37459 1.39999 6.66914 1.39999C6.96369 1.39999 7.20247 1.63878 7.20247 1.93333C7.20247 2.22788 6.96369 2.46666 6.66914 2.46666ZM8.80247 2.46666C8.50792 2.46666 8.26914 2.22788 8.26914 1.93333C8.26914 1.63878 8.50792 1.39999 8.80247 1.39999C9.09703 1.39999 9.33581 1.63878 9.33581 1.93333C9.33581 2.22788 9.09703 2.46666 8.80247 2.46666ZM3.46914 3.53333C3.17459 3.53333 2.93581 3.29455 2.93581 2.99999C2.93581 2.70544 3.17459 2.46666 3.46914 2.46666C3.76369 2.46666 4.00247 2.70544 4.00247 2.99999C4.00247 3.29455 3.76369 3.53333 3.46914 3.53333ZM5.60247 3.53333C5.30792 3.53333 5.06914 3.29455 5.06914 2.99999C5.06914 2.70544 5.30792 2.46666 5.60247 2.46666C5.89703 2.46666 6.13581 2.70544 6.13581 2.99999C6.13581 3.29455 5.89703 3.53333 5.60247 3.53333ZM7.73581 3.53333C7.44126 3.53333 7.20247 3.29455 7.20247 2.99999C7.20247 2.70544 7.44126 2.46666 7.73581 2.46666C8.03036 2.46666 8.26914 2.70544 8.26914 2.99999C8.26914 3.29455 8.03036 3.53333 7.73581 3.53333ZM8.80247 4.59999C8.50792 4.59999 8.26914 4.36121 8.26914 4.06666C8.26914 3.77211 8.50792 3.53333 8.80247 3.53333C9.09703 3.53333 9.33581 3.77211 9.33581 4.06666C9.33581 4.36121 9.09703 4.59999 8.80247 4.59999ZM6.66914 4.59999C6.37459 4.59999 6.13581 4.36121 6.13581 4.06666C6.13581 3.77211 6.37459 3.53333 6.66914 3.53333C6.96369 3.53333 7.20247 3.77211 7.20247 4.06666C7.20247 4.36121 6.96369 4.59999 6.66914 4.59999ZM4.53581 4.59999C4.24126 4.59999 4.00247 4.36121 4.00247 4.06666C4.00247 3.77211 4.24126 3.53333 4.53581 3.53333C4.83036 3.53333 5.06914 3.77211 5.06914 4.06666C5.06914 4.36121 4.83036 4.59999 4.53581 4.59999ZM2.40247 4.59999C2.10792 4.59999 1.86914 4.36121 1.86914 4.06666C1.86914 3.77211 2.10792 3.53333 2.40247 3.53333C2.69703 3.53333 2.93581 3.77211 2.93581 4.06666C2.93581 4.36121 2.69703 4.59999 2.40247 4.59999ZM3.46914 5.66666C3.17459 5.66666 2.93581 5.42788 2.93581 5.13333C2.93581 4.83878 3.17459 4.59999 3.46914 4.59999C3.76369 4.59999 4.00247 4.83878 4.00247 5.13333C4.00247 5.42788 3.76369 5.66666 3.46914 5.66666ZM5.60247 5.66666C5.30792 5.66666 5.06914 5.42788 5.06914 5.13333C5.06914 4.83878 5.30792 4.59999 5.60247 4.59999C5.89703 4.59999 6.13581 4.83878 6.13581 5.13333C6.13581 5.42788 5.89703 5.66666 5.60247 5.66666ZM7.73581 5.66666C7.44126 5.66666 7.20247 5.42788 7.20247 5.13333C7.20247 4.83878 7.44126 4.59999 7.73581 4.59999C8.03036 4.59999 8.26914 4.83878 8.26914 5.13333C8.26914 5.42788 8.03036 5.66666 7.73581 5.66666ZM8.80247 6.73333C8.50792 6.73333 8.26914 6.49455 8.26914 6.19999C8.26914 5.90544 8.50792 5.66666 8.80247 5.66666C9.09703 5.66666 9.33581 5.90544 9.33581 6.19999C9.33581 6.49455 9.09703 6.73333 8.80247 6.73333ZM6.66914 6.73333C6.37459 6.73333 6.13581 6.49455 6.13581 6.19999C6.13581 5.90544 6.37459 5.66666 6.66914 5.66666C6.96369 5.66666 7.20247 5.90544 7.20247 6.19999C7.20247 6.49455 6.96369 6.73333 6.66914 6.73333ZM4.53581 6.73333C4.24126 6.73333 4.00247 6.49455 4.00247 6.19999C4.00247 5.90544 4.24126 5.66666 4.53581 5.66666C4.83036 5.66666 5.06914 5.90544 5.06914 6.19999C5.06914 6.49455 4.83036 6.73333 4.53581 6.73333ZM2.40247 6.73333C2.10792 6.73333 1.86914 6.49455 1.86914 6.19999C1.86914 5.90544 2.10792 5.66666 2.40247 5.66666C2.69703 5.66666 2.93581 5.90544 2.93581 6.19999C2.93581 6.49455 2.69703 6.73333 2.40247 6.73333Z" fill="url(#paint3_linear_351_8098)"/>
<defs>
<linearGradient id="paint0_linear_351_8098" x1="236.001" y1="0.333313" x2="236.001" y2="240.333" gradientUnits="userSpaceOnUse">
<stop stop-color="white"/>
<stop offset="1" stop-color="#F0F0F0"/>
</linearGradient>
<linearGradient id="paint1_linear_351_8098" x1="236.001" y1="0.333313" x2="236.001" y2="240.333" gradientUnits="userSpaceOnUse">
<stop stop-color="#D02F44"/>
<stop offset="1" stop-color="#B12537"/>
</linearGradient>
<linearGradient id="paint2_linear_351_8098" x1="101.601" y1="0.333313" x2="101.601" y2="112.333" gradientUnits="userSpaceOnUse">
<stop stop-color="#46467F"/>
<stop offset="1" stop-color="#3C3C6D"/>
</linearGradient>
<linearGradient id="paint3_linear_351_8098" x1="80.2691" y1="1.39999" x2="80.2691" y2="81.4" gradientUnits="userSpaceOnUse">
<stop stop-color="white"/>
<stop offset="1" stop-color="#F0F0F0"/>
</linearGradient>
</defs>
</svg>
