<svg width="24" height="24" viewBox="0 0 24 24" fill="none" xmlns="http://www.w3.org/2000/svg">
<g clip-path="url(#clip0_121_9688)">
<path d="M4.75 14.2051C5.84404 12.7406 7.59127 11.7925 9.55994 11.7925C10.9614 11.7925 12.2506 12.273 13.2719 13.0782" stroke="#777E90" stroke-linecap="round" stroke-linejoin="round"/>
<path d="M8.70256 18.221H2.70256C2.24791 18.221 1.81187 18.0403 1.49038 17.7189C1.16889 17.3974 0.988281 16.9613 0.988281 16.5067V2.79242C0.988281 2.33775 1.16889 1.90173 1.49038 1.58023C1.81187 1.25874 2.24791 1.07812 2.70256 1.07812H16.4168C16.8715 1.07812 17.3075 1.25874 17.6291 1.58023C17.9505 1.90173 18.1312 2.33775 18.1312 2.79242V7.93527" stroke="#777E90" stroke-linecap="round" stroke-linejoin="round"/>
<path d="M9.55971 9.22098C10.9799 9.22098 12.1311 8.0697 12.1311 6.64955C12.1311 5.22939 10.9799 4.07812 9.55971 4.07812C8.13956 4.07812 6.98828 5.22939 6.98828 6.64955C6.98828 8.0697 8.13956 9.22098 9.55971 9.22098Z" stroke="#777E90" stroke-linecap="round" stroke-linejoin="round"/>
<path d="M12.5821 18.1078C11.9805 18.003 11.9805 17.1394 12.5821 17.0348C14.7615 16.6556 16.495 14.9956 16.9681 12.8345L17.0043 12.6689C17.1345 12.0743 17.9811 12.0706 18.1164 12.664L18.1604 12.8571C18.6511 15.0079 20.3849 16.6539 22.5584 17.032C23.1631 17.1372 23.1631 18.0053 22.5584 18.1105C20.3849 18.4885 18.6511 20.1346 18.1604 22.2855L18.1164 22.4785C17.9811 23.0718 17.1345 23.0682 17.0043 22.4736L16.9681 22.308C16.495 20.1469 14.7615 18.4868 12.5821 18.1078Z" stroke="#777E90" stroke-linecap="round" stroke-linejoin="round"/>
</g>
<defs>
<clipPath id="clip0_121_9688">
<rect width="24" height="24" fill="white"/>
</clipPath>
</defs>
</svg>
