<svg width="18" height="18" viewBox="0 0 18 18" fill="none" xmlns="http://www.w3.org/2000/svg">
<path fill-rule="evenodd" clip-rule="evenodd" d="M2.98876 15.4229C2.70648 15.47 2.48629 15.1825 2.60524 14.9222L3.66996 12.5924C2.95964 11.5405 2.57293 10.2987 2.57293 8.99953C2.57293 5.44931 5.45095 2.57129 9.00117 2.57129C12.5514 2.57129 15.4294 5.44931 15.4294 8.99953C15.4294 12.5497 12.5514 15.4278 9.00117 15.4278C8.07802 15.4278 7.18188 15.2328 6.35883 14.8612L2.98876 15.4229ZM6.34998 14.1386C6.42179 14.1266 6.49555 14.1369 6.56137 14.168C7.3174 14.5256 8.1456 14.7135 9.00117 14.7135C12.1569 14.7135 14.7152 12.1553 14.7152 8.99953C14.7152 5.84378 12.1569 3.28554 9.00117 3.28554C5.84542 3.28554 3.28718 5.84378 3.28718 8.99953C3.28718 10.2187 3.6695 11.3793 4.36894 12.3458C4.44434 12.4499 4.4579 12.5866 4.40445 12.7036L3.53417 14.6079L6.34998 14.1386ZM6.79349 7.19767C6.79349 7.36801 6.93158 7.5061 7.10191 7.5061H11.4199C11.5902 7.5061 11.7283 7.36801 11.7283 7.19767C11.7283 7.02734 11.5902 6.88925 11.4199 6.88925H7.10191C6.93158 6.88925 6.79349 7.02734 6.79349 7.19767ZM6.79349 9.04823C6.79349 9.21857 6.93158 9.35666 7.10191 9.35666H11.4199C11.5902 9.35666 11.7283 9.21857 11.7283 9.04823C11.7283 8.87789 11.5902 8.7398 11.4199 8.7398H7.10191C6.93158 8.7398 6.79349 8.87789 6.79349 9.04823ZM7.10191 11.2072C6.93158 11.2072 6.79349 11.0691 6.79349 10.8988C6.79349 10.7284 6.93158 10.5904 7.10191 10.5904H10.1862C10.3565 10.5904 10.4946 10.7284 10.4946 10.8988C10.4946 11.0691 10.3565 11.2072 10.1862 11.2072H7.10191Z" fill="#23262F"/>
</svg>
