<svg width="20" height="21" viewBox="0 0 20 21" fill="none" xmlns="http://www.w3.org/2000/svg">
<path d="M7.50065 10.0482C7.50065 11.1988 6.56791 12.1315 5.41732 12.1315C4.26672 12.1315 3.33398 11.1988 3.33398 10.0482C3.33398 8.89758 4.26672 7.96484 5.41732 7.96484C6.56791 7.96484 7.50065 8.89758 7.50065 10.0482Z" stroke="#141416"/>
<path d="M11.6667 5.46484L7.5 8.38151" stroke="#141416" stroke-linecap="round"/>
<path d="M11.6667 14.6309L7.5 11.7142" stroke="#141416" stroke-linecap="round"/>
<path d="M15.8327 15.4642C15.8327 16.6148 14.8999 17.5475 13.7493 17.5475C12.5988 17.5475 11.666 16.6148 11.666 15.4642C11.666 14.3136 12.5988 13.3809 13.7493 13.3809C14.8999 13.3809 15.8327 14.3136 15.8327 15.4642Z" stroke="#141416"/>
<path d="M15.8327 4.63118C15.8327 5.78178 14.8999 6.71452 13.7493 6.71452C12.5988 6.71452 11.666 5.78178 11.666 4.63118C11.666 3.48059 12.5988 2.54785 13.7493 2.54785C14.8999 2.54785 15.8327 3.48059 15.8327 4.63118Z" stroke="#141416"/>
</svg>
