<svg width="19" height="18" viewBox="0 0 19 18" fill="none" xmlns="http://www.w3.org/2000/svg">
<path d="M5.13893 14.1085C4.82141 14.1085 4.08866 13.6077 2.9407 12.6063C1.79273 11.6049 1.21875 10.921 1.21875 10.5547C1.21875 10.1639 2.28123 8.96704 4.40618 6.96421C6.53114 4.96138 7.71574 3.95996 7.95999 3.95996C8.03326 3.95996 8.19203 4.08208 8.43627 4.32633C8.70495 4.57058 8.83928 4.76598 8.83928 4.91253C8.83928 5.03465 8.2653 6.18261 7.11733 8.35642C8.4607 9.40669 9.13238 10.1272 9.13238 10.518C9.13238 10.9088 8.54618 11.6049 7.3738 12.6063C6.20141 13.6077 5.45645 14.1085 5.13893 14.1085ZM13.7853 14.1085C13.4678 14.1085 12.735 13.6077 11.5871 12.6063C10.4391 11.6049 9.86512 10.921 9.86512 10.5547C9.86512 10.1639 10.9276 8.96704 13.0526 6.96421C15.1775 4.96138 16.3621 3.95996 16.6064 3.95996C16.6796 3.95996 16.8384 4.08208 17.0826 4.32633C17.3513 4.57058 17.4857 4.76598 17.4857 4.91253C17.4857 5.03465 16.9117 6.18261 15.7637 8.35642C17.1071 9.40669 17.7788 10.1272 17.7788 10.518C17.7788 10.9088 17.1926 11.6049 16.0202 12.6063C14.8478 13.6077 14.1028 14.1085 13.7853 14.1085Z" fill="white"/>
</svg>
