<svg width="24" height="25" viewBox="0 0 24 25" fill="none" xmlns="http://www.w3.org/2000/svg">
<path fill-rule="evenodd" clip-rule="evenodd" d="M20.3818 9.90513C20.3818 6.51959 18.5825 4.54799 15.6675 4.54799C14.1133 4.54799 13.0757 5.15437 12.4693 6.39471C12.2763 6.78956 11.7254 6.78956 11.5323 6.39471C10.9259 5.15437 9.88836 4.54799 8.33417 4.54799C5.41915 4.54799 3.61988 6.51959 3.61988 9.90513C3.61988 12.4756 6.39468 15.6898 12.0008 19.4445C17.607 15.6898 20.3818 12.4756 20.3818 9.90513ZM15.6675 3.47656C19.1779 3.47656 21.4294 5.94374 21.4294 9.90513C21.4294 13.0058 18.3616 16.5125 12.2854 20.5335C12.1122 20.6481 11.8894 20.6481 11.7163 20.5335C5.64009 16.5125 2.57227 13.0058 2.57227 9.90513C2.57227 5.94374 4.8238 3.47656 8.33417 3.47656C9.93462 3.47656 11.1729 4.03736 12.0008 5.14342C12.8288 4.03736 14.0671 3.47656 15.6675 3.47656Z" fill="#141416"/>
</svg>
