<svg width="27" height="24" viewBox="0 0 27 24" fill="none" xmlns="http://www.w3.org/2000/svg">
<path fill-rule="evenodd" clip-rule="evenodd" d="M17.6834 12.0004C17.6834 12.9433 18.522 13.7147 19.5468 13.7147C20.5716 13.7147 21.4102 12.9433 21.4102 12.0004C21.4102 11.0576 20.5716 10.2861 19.5468 10.2861C18.522 10.2861 17.6834 11.0576 17.6834 12.0004ZM15.8201 12.0004C15.8201 11.0576 14.9816 10.2861 13.9567 10.2861C12.9319 10.2861 12.0934 11.0576 12.0934 12.0004C12.0934 12.9433 12.9319 13.7147 13.9567 13.7147C14.9816 13.7147 15.8201 12.9433 15.8201 12.0004ZM10.23 12.0004C10.23 11.0576 9.39152 10.2861 8.36668 10.2861C7.34183 10.2861 6.50332 11.0576 6.50332 12.0004C6.50332 12.9433 7.34183 13.7147 8.36668 13.7147C9.39152 13.7147 10.23 12.9433 10.23 12.0004Z" fill="#ACB1C0"/>
</svg>
