<svg width="24" height="25" viewBox="0 0 24 25" fill="none" xmlns="http://www.w3.org/2000/svg">
<path fill-rule="evenodd" clip-rule="evenodd" d="M3.98306 20.6121C3.60669 20.6748 3.3131 20.2915 3.4717 19.9445L4.89133 16.838C3.94424 15.4356 3.42862 13.7798 3.42862 12.0476C3.42862 7.31392 7.26598 3.47656 11.9996 3.47656C16.7332 3.47656 20.5706 7.31392 20.5706 12.0476C20.5706 16.7812 16.7332 20.6185 11.9996 20.6185C10.7687 20.6185 9.57388 20.3586 8.47648 19.8632L3.98306 20.6121ZM8.46468 18.8997C8.56044 18.8837 8.65878 18.8974 8.74654 18.9389C9.75458 19.4156 10.8588 19.6662 11.9996 19.6662C16.2073 19.6662 19.6183 16.2552 19.6183 12.0476C19.6183 7.83988 16.2073 4.42889 11.9996 4.42889C7.79194 4.42889 4.38095 7.83988 4.38095 12.0476C4.38095 13.6731 4.89072 15.2206 5.8233 16.5092C5.92383 16.6481 5.94191 16.8303 5.87064 16.9863L4.71027 19.5254L8.46468 18.8997ZM9.05603 9.64508C9.05603 9.87219 9.24015 10.0563 9.46727 10.0563H15.2245C15.4517 10.0563 15.6358 9.87219 15.6358 9.64508C15.6358 9.41796 15.4517 9.23384 15.2245 9.23384H9.46727C9.24015 9.23384 9.05603 9.41796 9.05603 9.64508ZM9.05603 12.1125C9.05603 12.3396 9.24015 12.5237 9.46727 12.5237H15.2245C15.4517 12.5237 15.6358 12.3396 15.6358 12.1125C15.6358 11.8854 15.4517 11.7012 15.2245 11.7012H9.46727C9.24015 11.7012 9.05603 11.8854 9.05603 12.1125ZM9.46727 14.9911C9.24015 14.9911 9.05603 14.807 9.05603 14.5799C9.05603 14.3528 9.24015 14.1687 9.46727 14.1687H13.5796C13.8067 14.1687 13.9908 14.3528 13.9908 14.5799C13.9908 14.807 13.8067 14.9911 13.5796 14.9911H9.46727Z" fill="#141416"/>
</svg>
