<svg width="20" height="20" viewBox="0 0 20 20" fill="none" xmlns="http://www.w3.org/2000/svg">
<path d="M1.66602 8.33331C1.66602 6.9526 2.7853 5.83331 4.16602 5.83331H15.8327C17.2134 5.83331 18.3327 6.9526 18.3327 8.33331V15.8333C18.3327 17.214 17.2134 18.3333 15.8327 18.3333H4.16602C2.7853 18.3333 1.66602 17.214 1.66602 15.8333V8.33331Z" fill="#B1B5C4"/>
<path fill-rule="evenodd" clip-rule="evenodd" d="M7.5 3.33335C7.03976 3.33335 6.66667 3.70645 6.66667 4.16669V6.66669C6.66667 7.12692 6.29357 7.50002 5.83333 7.50002C5.3731 7.50002 5 7.12692 5 6.66669V4.16669C5 2.78598 6.11929 1.66669 7.5 1.66669H12.5C13.8807 1.66669 15 2.78598 15 4.16669V6.66669C15 7.12692 14.6269 7.50002 14.1667 7.50002C13.7064 7.50002 13.3333 7.12692 13.3333 6.66669V4.16669C13.3333 3.70645 12.9602 3.33335 12.5 3.33335H7.5Z" fill="#B1B5C4"/>
</svg>
