<svg width="28" height="28" viewBox="0 0 28 28" fill="none" xmlns="http://www.w3.org/2000/svg">
<path d="M14.0007 10.5C13.0724 10.5 12.1822 10.8687 11.5258 11.5251C10.8694 12.1815 10.5007 13.0717 10.5007 14C10.5007 14.9282 10.8694 15.8185 11.5258 16.4749C12.1822 17.1312 13.0724 17.5 14.0007 17.5C14.9289 17.5 15.8191 17.1312 16.4755 16.4749C17.1319 15.8185 17.5007 14.9282 17.5007 14C17.5007 13.0717 17.1319 12.1815 16.4755 11.5251C15.8191 10.8687 14.9289 10.5 14.0007 10.5ZM14.0007 8.16665C15.5477 8.16665 17.0315 8.78123 18.1254 9.87519C19.2194 10.9692 19.834 12.4529 19.834 14C19.834 15.5471 19.2194 17.0308 18.1254 18.1248C17.0315 19.2187 15.5477 19.8333 14.0007 19.8333C12.4536 19.8333 10.9698 19.2187 9.87586 18.1248C8.7819 17.0308 8.16732 15.5471 8.16732 14C8.16732 12.4529 8.7819 10.9692 9.87586 9.87519C10.9698 8.78123 12.4536 8.16665 14.0007 8.16665ZM21.584 7.87498C21.584 8.26175 21.4303 8.63269 21.1568 8.90618C20.8834 9.17967 20.5124 9.33331 20.1257 9.33331C19.7389 9.33331 19.3679 9.17967 19.0945 8.90618C18.821 8.63269 18.6673 8.26175 18.6673 7.87498C18.6673 7.48821 18.821 7.11727 19.0945 6.84378C19.3679 6.57029 19.7389 6.41665 20.1257 6.41665C20.5124 6.41665 20.8834 6.57029 21.1568 6.84378C21.4303 7.11727 21.584 7.48821 21.584 7.87498ZM14.0007 4.66665C11.1143 4.66665 10.643 4.67481 9.30015 4.73431C8.38548 4.77748 7.77182 4.89998 7.20248 5.12165C6.69615 5.31765 6.33098 5.55215 5.94248 5.94181C5.57733 6.29461 5.29656 6.72533 5.12115 7.20181C4.89948 7.77348 4.77698 8.38598 4.73498 9.29948C4.67432 10.5875 4.66732 11.0378 4.66732 14C4.66732 16.8863 4.67548 17.3576 4.73498 18.7005C4.77815 19.614 4.90065 20.2288 5.12115 20.797C5.31948 21.3045 5.55282 21.6696 5.94015 22.057C6.33332 22.449 6.69848 22.6835 7.20015 22.8771C7.77648 23.1 8.39015 23.2236 9.30015 23.2656C10.5882 23.3263 11.0385 23.3333 14.0007 23.3333C16.887 23.3333 17.3583 23.3251 18.7011 23.2656C19.6135 23.2225 20.2283 23.1 20.7977 22.8795C21.3028 22.6823 21.6703 22.4478 22.0576 22.0605C22.4508 21.6673 22.6853 21.3021 22.879 20.8005C23.1007 20.2253 23.2243 19.6105 23.2663 18.7005C23.327 17.4125 23.334 16.9621 23.334 14C23.334 11.1136 23.3258 10.6423 23.2663 9.29948C23.2232 8.38715 23.1007 7.77115 22.879 7.20181C22.7032 6.72581 22.4229 6.29527 22.0588 5.94181C21.7062 5.57647 21.2754 5.29567 20.7988 5.12048C20.2271 4.89881 19.6135 4.77631 18.7011 4.73431C17.4131 4.67365 16.9628 4.66665 14.0007 4.66665ZM14.0007 2.33331C17.1705 2.33331 17.566 2.34498 18.8097 2.40331C20.0522 2.46165 20.898 2.65648 21.6423 2.94581C22.4123 3.24215 23.061 3.64348 23.7097 4.29098C24.3029 4.87419 24.7619 5.57967 25.0548 6.35831C25.343 7.10148 25.539 7.94848 25.5973 9.19098C25.6522 10.4346 25.6673 10.8301 25.6673 14C25.6673 17.1698 25.6557 17.5653 25.5973 18.809C25.539 20.0515 25.343 20.8973 25.0548 21.6416C24.7628 22.4207 24.3036 23.1264 23.7097 23.709C23.1263 24.302 22.4208 24.761 21.6423 25.0541C20.8991 25.3423 20.0522 25.5383 18.8097 25.5966C17.566 25.6515 17.1705 25.6666 14.0007 25.6666C10.8308 25.6666 10.4353 25.655 9.19165 25.5966C7.94915 25.5383 7.10332 25.3423 6.35898 25.0541C5.58003 24.7619 4.87443 24.3027 4.29165 23.709C3.69829 23.1259 3.23924 22.4204 2.94648 21.6416C2.65715 20.8985 2.46232 20.0515 2.40398 18.809C2.34915 17.5653 2.33398 17.1698 2.33398 14C2.33398 10.8301 2.34565 10.4346 2.40398 9.19098C2.46232 7.94731 2.65715 7.10265 2.94648 6.35831C3.23843 5.57919 3.69759 4.87352 4.29165 4.29098C4.8746 3.69742 5.58015 3.23833 6.35898 2.94581C7.10332 2.65648 7.94798 2.46165 9.19165 2.40331C10.4353 2.34848 10.8308 2.33331 14.0007 2.33331Z" fill="#030303"/>
</svg>
