<svg width="28" height="28" viewBox="0 0 28 28" fill="none" xmlns="http://www.w3.org/2000/svg">
<path d="M18.1913 20.4987C12.6901 20.4987 8.2144 15.8699 8.21289 10.1824C8.2144 8.74067 9.34988 7.5683 10.7414 7.5683C10.8844 7.5683 11.026 7.58075 11.1615 7.60566C11.4597 7.65704 11.7428 7.76136 12.0034 7.91861C12.041 7.94196 12.0666 7.97933 12.0726 8.02292L12.6539 11.811C12.6614 11.8561 12.6479 11.8997 12.6193 11.9324C12.2985 12.2998 11.8889 12.5645 11.4326 12.6969L11.2127 12.7607L11.2956 12.9802C12.0455 14.9544 13.5725 16.5316 15.4836 17.3101L15.6959 17.3973L15.7577 17.1699C15.8857 16.6982 16.1417 16.2747 16.4971 15.9431C16.5227 15.9182 16.5573 15.9057 16.592 15.9057C16.5995 15.9057 16.607 15.9057 16.6161 15.9073L20.28 16.5082C20.3237 16.516 20.3598 16.5409 20.3824 16.5799C20.533 16.8492 20.6339 17.1435 20.6851 17.4518C20.7092 17.5888 20.7198 17.7336 20.7198 17.8846C20.7198 19.3247 19.5858 20.4971 18.1913 20.4987Z" fill="#25D366"/>
<path d="M27.9473 12.7513C27.6506 9.28559 26.1146 6.07051 23.6222 3.69929C21.1148 1.31406 17.862 0 14.4601 0C6.9936 0 0.91864 6.28069 0.91864 14C0.91864 16.5907 1.60985 19.1145 2.91852 21.3129L0 27.9922L9.34438 26.9631C10.9693 27.6512 12.6891 28 14.4586 28C14.9239 28 15.4013 27.9751 15.8802 27.9237C16.3018 27.877 16.728 27.8085 17.1467 27.7213C23.3994 26.415 27.9639 20.6777 28 14.0747V14C28 13.5796 27.9819 13.1593 27.9458 12.7513H27.9473ZM9.7043 24.0314L4.53441 24.6012L6.078 21.0654L5.76928 20.6372C5.74669 20.6061 5.7241 20.575 5.6985 20.5391C4.35821 18.6257 3.6504 16.365 3.6504 14.0016C3.6504 7.83919 8.49954 2.82584 14.4601 2.82584C20.0441 2.82584 24.7773 7.33007 25.2336 13.0798C25.2577 13.3881 25.2712 13.698 25.2712 14.0031C25.2712 14.0903 25.2697 14.1759 25.2682 14.2678C25.1538 19.4228 21.6705 23.8009 16.7973 24.9157C16.4253 25.0013 16.0443 25.0667 15.6648 25.1088C15.2703 25.1555 14.8652 25.1788 14.4631 25.1788C13.0309 25.1788 11.6394 24.8923 10.3248 24.3256C10.1787 24.2649 10.0356 24.1995 9.90157 24.1326L9.70581 24.0345L9.7043 24.0314Z" fill="#25D366"/>
</svg>
