<svg width="28" height="28" viewBox="0 0 28 28" fill="none" xmlns="http://www.w3.org/2000/svg">
<path d="M3.70163 6.95807C3.23304 6.5173 3 5.97171 3 5.32255C3 4.6734 3.23428 4.10381 3.70163 3.66178C4.17023 3.22101 4.77342 3 5.51246 3C6.25149 3 6.83102 3.22101 7.29837 3.66178C7.76696 4.10255 8 4.65698 8 5.32255C8 5.98813 7.76572 6.5173 7.29837 6.95807C6.82977 7.39884 6.23529 7.61985 5.51246 7.61985C4.78963 7.61985 4.17023 7.39884 3.70163 6.95807ZM7.60619 9.48648V23H3.39256V9.48648H7.60619Z" fill="#0A66C2"/>
<path d="M22.6297 10.5769C23.5436 11.6281 24 13.071 24 14.908V23H20.018V15.4783C20.018 14.5519 19.7911 13.8318 19.3385 13.3193C18.8858 12.8068 18.2757 12.5493 17.5118 12.5493C16.7479 12.5493 16.1377 12.8055 15.6851 13.3193C15.2325 13.8318 15.0055 14.5519 15.0055 15.4783V23H11V9.14849H15.0055V10.9855C15.411 10.3732 15.9579 9.88962 16.645 9.53351C17.332 9.1774 18.1046 9 18.964 9C20.4942 9 21.717 9.52562 22.6297 10.5769Z" fill="#0A66C2"/>
</svg>
