<svg width="19" height="16" viewBox="0 0 19 16" fill="none" xmlns="http://www.w3.org/2000/svg">
<path fill-rule="evenodd" clip-rule="evenodd" d="M2.83398 0.5C1.45327 0.5 0.333984 1.61929 0.333984 3V4.66667H18.6673V3C18.6673 1.61929 17.548 0.5 16.1673 0.5H2.83398ZM18.6673 6.33333H0.333984V13C0.333984 14.3807 1.45327 15.5 2.83398 15.5H16.1673C17.548 15.5 18.6673 14.3807 18.6673 13V6.33333ZM6.16732 10.9167C6.16732 11.607 5.60767 12.1667 4.91732 12.1667C4.22696 12.1667 3.66732 11.607 3.66732 10.9167C3.66732 10.2263 4.22696 9.66667 4.91732 9.66667C5.60767 9.66667 6.16732 10.2263 6.16732 10.9167ZM9.08398 12.1667C9.77434 12.1667 10.334 11.607 10.334 10.9167C10.334 10.2263 9.77434 9.66667 9.08398 9.66667C8.39363 9.66667 7.83398 10.2263 7.83398 10.9167C7.83398 11.607 8.39363 12.1667 9.08398 12.1667Z" fill="#23262F"/>
</svg>
